<svg width="28" height="31" viewBox="0 0 28 31" fill="none" xmlns="http://www.w3.org/2000/svg">
	<path d="M14 3.76V26.88C14.5067 27.2533 14.9867 27.52 15.44 27.68C15.92 27.84 16.3733 27.92 16.8 27.92C17.84 27.92 18.7067 27.5467 19.4 26.8C20.12 26.0267 20.7067 25.04 21.16 23.84C21.6133 22.6133 21.9333 21.2533 22.12 19.76C22.3333 18.2667 22.44 16.8 22.44 15.36C22.44 12.88 22.2667 10.76 21.92 9C21.5733 7.24 21.0133 5.8 20.24 4.68C19.4667 3.56 18.4667 2.74667 17.24 2.24C16.0133 1.70667 14.5333 1.44 12.8 1.44C11.6 1.44 10.4533 1.62666 9.36 2C8.26667 2.37333 7.30667 2.92 6.48 3.64C5.65333 4.33333 4.98667 5.2 4.48 6.24C4 7.25333 3.76 8.41333 3.76 9.72C3.76 10.4933 3.84 11.1467 4 11.68C4.18667 12.2133 4.38667 12.6533 4.6 13C4.84 13.3467 5.08 13.6267 5.32 13.84C5.58667 14.0267 5.8 14.1733 5.96 14.28C4.33333 14.28 3.05333 13.9067 2.12 13.16C1.18667 12.4133 0.72 11.16 0.72 9.4C0.72 8.17333 1.04 6.98666 1.68 5.84C2.32 4.69333 3.2 3.69333 4.32 2.84C5.46667 1.98667 6.8 1.30667 8.32 0.799999C9.86667 0.266665 11.5467 -2.38419e-06 13.36 -2.38419e-06C15.92 -2.38419e-06 18.08 0.439998 19.84 1.32C21.6 2.17333 23.0267 3.32 24.12 4.76C25.2133 6.17333 26 7.8 26.48 9.64C26.96 11.48 27.2 13.3733 27.2 15.32C27.2 17.2133 27 19.0667 26.6 20.88C26.2267 22.6933 25.6933 24.32 25 25.76C24.3333 27.1733 23.5333 28.32 22.6 29.2C21.6667 30.08 20.64 30.52 19.52 30.52C18.72 30.52 17.8667 30.3333 16.96 29.96C16.0533 29.5867 15.0667 29 14 28.2V30H9.68V4.36L14 3.76Z" fill="#343434" />
</svg>
