<svg width="75" height="75" viewBox="0 0 75 75" fill="none" xmlns="http://www.w3.org/2000/svg">
<rect width="75" height="75" rx="20" fill="#343434"/>
<path d="M36.64 51.48C34.16 51.48 32.1067 50.48 30.48 48.48C28.8533 46.4533 28.04 43.8133 28.04 40.56C28.04 37.3067 28.6 34.3467 29.72 31.68C30.84 28.9867 32.44 26.8 34.52 25.12C36.6 23.44 38.8133 22.6 41.16 22.6C43.5333 22.6 45.44 23.1333 46.88 24.2C48.3467 25.2667 49.08 26.5467 49.08 28.04C49.08 29.5067 48.64 30.76 47.76 31.8C46.9067 31.8 45.9467 31.6133 44.88 31.24C43.8133 30.8667 43.0133 30.4133 42.48 29.88L43.24 25.84C42.6 25.44 41.76 25.24 40.72 25.24C39.0933 25.24 37.6533 26.64 36.4 29.44C35.1467 32.2133 34.52 35.64 34.52 39.72C34.52 42.4133 34.96 44.3733 35.84 45.6C36.7467 46.8 37.84 47.4 39.12 47.4C41.2267 47.4 43.2533 46.4133 45.2 44.44L46.84 45.92C46.5467 46.3467 46.0133 46.9333 45.24 47.68C44.4667 48.4267 43.7067 49.0533 42.96 49.56C42.2133 50.04 41.2667 50.48 40.12 50.88C38.9733 51.28 37.8133 51.48 36.64 51.48Z" fill="#00FFC2"/>
</svg>
