<svg width="75" height="75" viewBox="0 0 75 75" fill="none" xmlns="http://www.w3.org/2000/svg">
<rect width="75" height="75" rx="20" fill="#343434"/>
<mask id="mask0_6_938" style="mask-type:alpha" maskUnits="userSpaceOnUse" x="15" y="25" width="45" height="27">
<path d="M60 43.3396C60 47.972 56.3086 51.3813 51.7383 51.3813C40.0734 51.3813 37.9148 33.8289 26.4469 33.8289C16.118 33.8289 16.1039 48.7452 26.8406 48.7452C29.8289 48.7452 33.232 47.494 35.6508 45.7578C36.0445 45.4695 36.8391 44.612 37.2539 44.612C37.6688 44.612 38.0203 44.9634 38.0203 45.3782C38.0203 45.9265 37.0992 46.7208 36.7055 47.0722C33.8297 49.5747 29.6531 51.3742 25.8281 51.3742C19.9641 51.3813 15 47.2269 15 41.1887C15 35.1504 19.7461 30.7079 25.7438 30.7079C38.7727 30.7079 41.3883 47.9931 51.1898 47.9931C58.2141 47.9931 57.8555 38.1731 51.4289 38.1731C50.1984 38.1731 48.968 38.9885 48.1313 38.9885C47.5406 38.9885 47.0133 38.4823 47.0133 37.8919C47.0133 37.0765 47.3859 36.2259 47.3859 35.3402C47.3859 30.6586 43.807 27.2775 39.1664 27.2775C35.4328 27.2775 33.5414 29.8714 32.9227 29.8714C32.4867 29.8714 32.1352 29.5199 32.1352 29.0841C32.1352 28.6904 32.4234 28.36 32.6836 28.0718C34.4625 26.0474 37.2328 25 39.9117 25C45.4945 25 49.6922 29.1052 49.6922 34.6865C49.6922 35.1715 49.6711 35.6495 49.6078 36.1345C50.4445 35.9166 51.3023 35.8042 52.132 35.8042C56.4 35.8042 60 38.9885 60 43.3396Z" fill="black"/>
</mask>
<g mask="url(#mask0_6_938)">
<ellipse cx="36.8534" cy="47.5" rx="25.976" ry="30.9375" fill="#FFB0B0"/>
<ellipse cx="27.6644" cy="27.8125" rx="23.9144" ry="16.875" fill="#9D9DFF"/>
</g>
</svg>
