<svg width="42" height="40" viewBox="0 0 42 40" fill="none" xmlns="http://www.w3.org/2000/svg">
	<path d="M13.7228 32.2079C13.7228 32.3734 13.5325 32.5057 13.2927 32.5057C13.0197 32.5305 12.8295 32.3982 12.8295 32.2079C12.8295 32.0425 13.0197 31.9102 13.2596 31.9102C13.5077 31.8854 13.7228 32.0177 13.7228 32.2079ZM11.1504 31.8357C11.0925 32.0012 11.258 32.1914 11.5061 32.241C11.7211 32.3237 11.9693 32.241 12.0189 32.0756C12.0685 31.9102 11.9114 31.7199 11.6632 31.6455C11.4482 31.5876 11.2083 31.6703 11.1504 31.8357ZM14.8063 31.6951C14.5664 31.753 14.401 31.9102 14.4258 32.1004C14.4506 32.2658 14.6657 32.3734 14.9138 32.3155C15.1537 32.2576 15.3191 32.1004 15.2943 31.935C15.2695 31.7778 15.0462 31.6703 14.8063 31.6951ZM20.2487 0C8.77661 0 0.000892639 8.70954 0.000892639 20.1817C0.000892639 29.3544 5.77417 37.2037 14.0205 39.9663C15.0792 40.1565 15.4514 39.5031 15.4514 38.9655C15.4514 38.4527 15.4266 35.6239 15.4266 33.887C15.4266 33.887 9.63681 35.1277 8.42095 31.4222C8.42095 31.4222 7.47803 29.0153 6.12156 28.3949C6.12156 28.3949 4.22746 27.0964 6.2539 27.1212C6.2539 27.1212 8.31342 27.2866 9.44657 29.2551C11.258 32.4478 14.2935 31.5297 15.4763 30.9838C15.6665 29.6604 16.2041 28.7423 16.7996 28.1964C12.1761 27.6836 7.51112 27.0136 7.51112 19.0568C7.51112 16.7822 8.13972 15.6408 9.46311 14.1851C9.24806 13.6474 8.54501 11.4308 9.67816 8.56893C11.4068 8.03131 15.3853 10.8021 15.3853 10.8021C17.0395 10.339 18.8178 10.0991 20.5796 10.0991C22.3413 10.0991 24.1196 10.339 25.7739 10.8021C25.7739 10.8021 29.7523 8.02304 31.481 8.56893C32.6141 11.439 31.9111 13.6474 31.696 14.1851C33.0194 15.6491 33.83 16.7905 33.83 19.0568C33.83 27.0385 28.9583 27.6753 24.3347 28.1964C25.0956 28.8498 25.7408 30.0905 25.7408 32.0342C25.7408 34.8216 25.716 38.2707 25.716 38.9489C25.716 39.4866 26.0964 40.14 27.1469 39.9498C35.418 37.2037 41.0259 29.3544 41.0259 20.1817C41.0259 8.70954 31.7208 0 20.2487 0ZM8.04047 28.5273C7.93295 28.61 7.95776 28.8002 8.09837 28.9574C8.23071 29.0897 8.42095 29.1476 8.52847 29.0401C8.63599 28.9574 8.61118 28.7671 8.47057 28.61C8.33823 28.4776 8.148 28.4197 8.04047 28.5273ZM7.14718 27.8573C7.08929 27.9648 7.172 28.0972 7.33742 28.1799C7.46976 28.2626 7.63518 28.2378 7.69308 28.122C7.75098 28.0145 7.66827 27.8821 7.50284 27.7994C7.33742 27.7498 7.20508 27.7746 7.14718 27.8573ZM9.82704 30.8018C9.69471 30.9094 9.74433 31.1575 9.93457 31.3147C10.1248 31.5049 10.3647 31.5297 10.4722 31.3974C10.5797 31.2898 10.5301 31.0417 10.3647 30.8846C10.1827 30.6943 9.93457 30.6695 9.82704 30.8018ZM8.88413 29.586C8.75179 29.6687 8.75179 29.8837 8.88413 30.074C9.01647 30.2642 9.23979 30.3469 9.34732 30.2642C9.47965 30.1567 9.47965 29.9416 9.34732 29.7514C9.23152 29.5612 9.01647 29.4785 8.88413 29.586Z" />
</svg>
