<svg width="100" height="100" viewBox="0 0 100 100" fill="none" xmlns="http://www.w3.org/2000/svg">
<g clip-path="url(#clip0_6_1565)">
<path d="M13.6017 76.2133L9.935 74.0933L50.8283 3.2666L54.495 5.3866L13.6017 76.2133Z" fill="#E10098"/>
<path d="M9.09167 68.4333H90.885V72.6733H9.09167V68.4333Z" fill="#E10098"/>
<path d="M51.6217 94.4401L10.7117 70.8201L12.8317 67.1534L53.7417 90.7734L51.6217 94.4401ZM87.1617 32.8734L46.2483 9.25675L48.3683 5.59009L89.2783 29.2101L87.1617 32.8734Z" fill="#E10098"/>
<path d="M12.8417 32.86L10.7217 29.1933L51.6683 5.56665L53.7883 9.23332L12.8417 32.86Z" fill="#E10098"/>
<path d="M86.4083 76.2133L45.5083 5.38001L49.175 3.26001L90.075 74.0934L86.4083 76.2133ZM12.335 26.38H16.575V73.62H12.335V26.38ZM83.4283 26.38H87.6683V73.62H83.4283V26.38Z" fill="#E10098"/>
<path d="M50.9017 92.6433L49.0517 89.4366L84.635 68.8933L86.485 72.1L50.9017 92.6433Z" fill="#E10098"/>
<path d="M93.285 75C92.1005 77.0456 90.1535 78.5384 87.8706 79.1513C85.5876 79.7642 83.1548 79.4473 81.105 78.2701C79.0594 77.0855 77.5667 75.1386 76.9538 72.8556C76.3408 70.5726 76.6577 68.1398 77.835 66.09C79.0195 64.0444 80.9665 62.5517 83.2495 61.9388C85.5324 61.3259 87.9652 61.6428 90.015 62.82C94.305 65.2967 95.7617 70.7367 93.2817 75M22.1417 33.9134C20.9572 35.959 19.0102 37.4517 16.7272 38.0646C14.4443 38.6776 12.0114 38.3607 9.96167 37.1834C7.91516 35.9988 6.42177 34.0513 5.80881 31.7675C5.19585 29.4837 5.51333 27.0501 6.69167 25C7.87618 22.9544 9.82316 21.4617 12.1061 20.8488C14.3891 20.2359 16.8219 20.5528 18.8717 21.73C20.9173 22.9146 22.41 24.8615 23.0229 27.1445C23.6358 29.4275 23.319 31.8636 22.1417 33.9134ZM6.71834 75C5.54105 72.9503 5.22416 70.5175 5.83707 68.2345C6.44998 65.9515 7.94273 64.0046 9.98834 62.82C12.0381 61.6428 14.4709 61.3259 16.7539 61.9388C19.0368 62.5517 20.9838 64.0444 22.1683 66.09C23.3456 68.1398 23.6625 70.5726 23.0496 72.8556C22.4367 75.1386 20.9439 77.0855 18.8983 78.2701C14.6083 80.72 9.165 79.2667 6.71834 75ZM77.8617 33.9167C76.6844 31.8669 76.3675 29.4341 76.9804 27.1512C77.5933 24.8682 79.0861 22.9212 81.1317 21.7367C83.1815 20.5594 85.6143 20.2425 87.8972 20.8554C90.1802 21.4684 92.1272 22.9611 93.3117 25.0067C94.489 27.0565 94.8059 29.4893 94.1929 31.7723C93.58 34.0552 92.0873 36.0022 90.0417 37.1867C87.9919 38.364 85.5591 38.6809 83.2761 38.068C80.9932 37.4551 79.0462 35.9623 77.8617 33.9167ZM50.0017 100C48.2386 100 46.5152 99.4772 45.0493 98.4977C43.5835 97.5181 42.441 96.1258 41.7665 94.4969C41.092 92.868 40.9157 91.0757 41.2598 89.3466C41.604 87.6175 42.4533 86.0293 43.7002 84.7829C44.9471 83.5364 46.5356 82.6878 48.2648 82.3442C49.994 82.0007 51.7863 82.1777 53.415 82.8528C55.0436 83.528 56.4355 84.6709 57.4145 86.1372C58.3935 87.6034 58.9157 89.327 58.915 91.09C58.9088 93.4518 57.9677 95.715 56.2973 97.3847C54.627 99.0544 52.3634 99.9948 50.0017 100ZM50.0017 17.8267C48.8307 17.8285 47.6708 17.5991 46.5886 17.1518C45.5064 16.7045 44.5231 16.048 43.6951 15.22C42.8671 14.3919 42.2106 13.4086 41.7633 12.3264C41.3159 11.2442 41.0866 10.0844 41.0883 8.91338C41.0883 6.54986 42.0272 4.28314 43.6985 2.61188C45.3698 0.940614 47.6365 0.00170898 50 0.00170898C52.3635 0.00170898 54.6302 0.940614 56.3015 2.61188C57.9728 4.28314 58.9117 6.54986 58.9117 8.91338C58.913 10.0838 58.6834 11.243 58.2361 12.3246C57.7888 13.4062 57.1326 14.389 56.3049 15.2166C55.4773 16.0443 54.4945 16.7005 53.4129 17.1478C52.3313 17.5951 51.1721 17.828 50.0017 17.8267Z" fill="#E10098"/>
</g>
<defs>
<clipPath id="clip0_6_1565">
<rect width="100" height="100" fill="white"/>
</clipPath>
</defs>
</svg>
