<svg width="23" height="15" viewBox="0 0 28 20" fill="none" xmlns="http://www.w3.org/2000/svg">
	<path d="M0.979592 3.67347H26.449C26.99 3.67347 27.4286 3.30801 27.4286 2.85714V0.816327C27.4286 0.365459 26.99 0 26.449 0H0.979592C0.438551 0 0 0.365459 0 0.816327V2.85714C0 3.30801 0.438551 3.67347 0.979592 3.67347ZM0.979592 11.8367H26.449C26.99 11.8367 27.4286 11.4713 27.4286 11.0204V8.97959C27.4286 8.52872 26.99 8.16327 26.449 8.16327H0.979592C0.438551 8.16327 0 8.52872 0 8.97959V11.0204C0 11.4713 0.438551 11.8367 0.979592 11.8367ZM0.979592 20H26.449C26.99 20 27.4286 19.6345 27.4286 19.1837V17.1429C27.4286 16.692 26.99 16.3265 26.449 16.3265H0.979592C0.438551 16.3265 0 16.692 0 17.1429V19.1837C0 19.6345 0.438551 20 0.979592 20Z" fill="#343434" />
</svg>
