<svg width="75" height="75" viewBox="0 0 75 75" fill="none" xmlns="http://www.w3.org/2000/svg">
	<rect width="75" height="75" rx="20" fill="#6CA6C1" />
	<path d="M37.5007 13.5623C50.5488 18.8471 59.3566 19.2158 59.3566 19.2158C59.3566 26.8359 59.3566 38.1431 54.7898 49.4502C50.2228 60.7574 37.5007 62.478 37.5007 62.478C37.5007 62.478 24.7773 60.7574 20.2099 49.4502C15.6434 38.1431 15.6434 26.8359 15.6434 19.2158C15.6434 19.2158 24.4511 18.8471 37.5007 13.5623Z" stroke="#EED132" stroke-width="0.826744" stroke-miterlimit="10" />
	<path d="M56.21 29.0638H52.4162V29.6942H52.8032L52.2738 46.105C52.1774 46.1467 52.0959 46.2137 52.0389 46.2981C51.9819 46.3824 51.9519 46.4804 51.9524 46.5804V47.1006H49.2321V46.5804C49.2327 46.4804 49.2027 46.3824 49.1457 46.2981C49.0887 46.2137 49.0071 46.1467 48.9108 46.105L48.3813 29.6942H48.7684V29.0638H47.9833C48.1783 28.9833 48.3464 28.8545 48.4699 28.691C48.5934 28.5275 48.6675 28.3354 48.6843 28.1353C48.7012 27.9352 48.6602 27.7345 48.5657 27.5547C48.4711 27.3748 48.3267 27.2225 48.1476 27.114C48.2221 26.8665 48.2335 26.6059 48.1811 26.3534C48.1286 26.1009 48.0138 25.8636 47.8459 25.6609C47.6779 25.4581 47.4616 25.2957 47.2146 25.1866C46.9676 25.0776 46.6967 25.0251 46.4241 25.0334C46.3986 25.0334 46.373 25.0368 46.3475 25.0368C46.2636 24.9454 46.1607 24.8713 46.045 24.8191C45.9294 24.767 45.8037 24.7379 45.6756 24.7337C45.6756 24.7199 45.6792 24.7061 45.6792 24.6924C45.677 24.5127 45.6372 24.3353 45.5621 24.1702C45.4871 24.0051 45.3783 23.8555 45.242 23.7301C45.1057 23.6047 44.9445 23.5059 44.7676 23.4393C44.5908 23.3727 44.4018 23.3396 44.2114 23.342C43.9268 23.3421 43.6482 23.4186 43.408 23.5625C43.1761 23.3529 42.8675 23.2357 42.5463 23.2352C42.4826 23.2356 42.4191 23.2414 42.3564 23.2524C42.277 22.8498 42.0497 22.4864 41.7145 22.2262C41.3792 21.966 40.9575 21.8257 40.5234 21.8297C40.2703 21.8295 40.0198 21.8775 39.787 21.9711C39.5542 22.0646 39.3438 22.2017 39.1687 22.374C38.5283 21.9408 37.7354 21.7573 36.9552 21.8619C36.1749 21.9665 35.4676 22.3511 34.9805 22.9355C34.8142 22.9066 34.6456 22.8917 34.4766 22.8907C33.9187 22.8882 33.3747 23.0549 32.9247 23.3661C32.744 23.2425 32.5384 23.1552 32.3205 23.1097C32.1026 23.0642 31.8771 23.0613 31.658 23.1014C31.4389 23.1414 31.2309 23.2235 31.0468 23.3425C30.8627 23.4615 30.7065 23.615 30.5878 23.7933C30.4998 23.7022 30.3927 23.6294 30.2732 23.5796C30.1538 23.5298 30.0246 23.504 29.894 23.5039C29.8088 23.5047 29.724 23.5163 29.6421 23.5384C29.6421 23.5246 29.6457 23.5143 29.6457 23.5039C29.641 23.3059 29.5543 23.1175 29.4041 22.979C29.254 22.8405 29.0524 22.763 28.8424 22.763C28.6324 22.763 28.4308 22.8405 28.2807 22.979C28.1305 23.1175 28.0438 23.3059 28.0391 23.5039C28.0394 23.5897 28.0554 23.6748 28.0865 23.7554C27.9339 23.8276 27.8094 23.9437 27.7311 24.0868C27.6527 24.23 27.6245 24.3929 27.6505 24.5521C27.6764 24.7114 27.7552 24.8588 27.8756 24.9731C27.9959 25.0874 28.1516 25.1628 28.3202 25.1884C28.1432 25.4433 28.0493 25.7415 28.05 26.0462C28.0528 26.2602 28.1002 26.4716 28.1896 26.6683C28.279 26.865 28.4086 27.0431 28.5711 27.1925C28.7335 27.3419 28.9256 27.4597 29.1363 27.539C29.347 27.6183 29.5722 27.6577 29.7991 27.6549C30.1904 27.6557 30.5707 27.5332 30.8799 27.3069C31.0081 27.774 31.298 28.1872 31.7035 28.4811C32.1089 28.7751 32.6069 28.9328 33.1182 28.9294C33.5963 28.9302 34.063 28.7919 34.4547 28.5333C34.6909 28.6975 34.9607 28.8136 35.247 28.8743C35.6289 29.3224 36.1214 29.6752 36.6814 29.9019C37.2414 30.1287 37.8518 30.2223 38.4591 30.1747C39.0664 30.1271 39.6521 29.9397 40.1648 29.6289C40.6775 29.3181 41.1015 28.8934 41.3997 28.3921H41.4691C41.6915 28.3935 41.9104 28.3399 42.1039 28.2365C42.2974 28.1332 42.4588 27.9837 42.5718 27.803C42.7235 27.9673 42.911 28.0988 43.1215 28.1886C43.3319 28.2783 43.5605 28.3242 43.7914 28.3232C43.9874 28.3236 44.1818 28.2898 44.3647 28.2233C44.6986 28.4534 45.1014 28.5777 45.5149 28.5781C45.5832 28.5782 45.6515 28.5747 45.7194 28.5677C45.7003 28.6469 45.6905 28.7277 45.6902 28.8089C45.6899 28.8948 45.7009 28.9804 45.723 29.0638H44.9745V29.6942H45.3616L44.8321 46.105C44.7358 46.1467 44.6542 46.2138 44.5972 46.2981C44.5402 46.3824 44.5102 46.4804 44.5108 46.5804V47.1006H39.7821C39.6725 47.1002 39.5639 47.1202 39.4625 47.1595C39.3611 47.1988 39.2689 47.2566 39.1912 47.3295C39.1135 47.4025 39.0519 47.4892 39.0098 47.5847C38.9677 47.6802 38.946 47.7826 38.946 47.886V55.1062H36.054V48.3407H33.3848V44.5859L26.374 46.2532V48.3407H22.8175C22.8177 48.2317 22.7815 48.1254 22.7139 48.037C22.6464 47.9486 22.5511 47.8825 22.4414 47.8481L21.7403 47.6277H22.8394C22.9246 47.6277 23.0064 47.5957 23.0666 47.5389C23.1269 47.482 23.1608 47.4049 23.1608 47.3245C23.1608 47.2441 23.1269 47.167 23.0666 47.1102C23.0064 47.0533 22.9246 47.0214 22.8394 47.0214H22.8175V46.2291C22.8176 46.1205 22.7813 46.0147 22.7137 45.9268C22.6462 45.839 22.5508 45.7735 22.4414 45.7399L21.7403 45.5195H22.8285C22.9042 45.5202 22.9779 45.4963 23.0371 45.4517C23.0963 45.4072 23.1374 45.3447 23.1535 45.2749C23.1632 45.2308 23.1624 45.1852 23.1511 45.1415C23.1398 45.0978 23.1184 45.0569 23.0883 45.022C23.0583 44.987 23.0203 44.9588 22.9773 44.9394C22.9342 44.92 22.8871 44.9098 22.8394 44.9097H22.8175V44.1209C22.8177 44.0119 22.7814 43.9056 22.7139 43.8172C22.6464 43.7287 22.551 43.6626 22.4414 43.6283L21.7403 43.4078H22.8394C22.9251 43.4078 23.0073 43.3757 23.0679 43.3185C23.1285 43.2614 23.1626 43.1838 23.1626 43.103C23.1626 43.0221 23.1285 42.9446 23.0679 42.8874C23.0073 42.8302 22.9251 42.7981 22.8394 42.7981H22.8175V42.0093C22.8176 41.9007 22.7813 41.7949 22.7137 41.707C22.6461 41.6191 22.5508 41.5537 22.4414 41.5201L21.7403 41.2996H22.8394C22.9251 41.2996 23.0073 41.2675 23.0679 41.2103C23.1285 41.1532 23.1626 41.0756 23.1626 40.9948C23.1626 40.9139 23.1285 40.8364 23.0679 40.7792C23.0073 40.722 22.9251 40.6899 22.8394 40.6899H22.8175V39.9011C22.8177 39.7921 22.7814 39.6858 22.7139 39.5974C22.6464 39.5089 22.551 39.4428 22.4414 39.4085L21.7403 39.188H22.8394C22.9251 39.188 23.0073 39.1559 23.0679 39.0987C23.1285 39.0415 23.1626 38.964 23.1626 38.8831C23.1626 38.8023 23.1285 38.7248 23.0679 38.6676C23.0073 38.6104 22.9251 38.5783 22.8394 38.5783H22.8175V38.2304C22.8178 38.1611 22.8036 38.0924 22.7756 38.0283C22.7476 37.9643 22.7065 37.906 22.6546 37.857C22.6026 37.808 22.5409 37.7692 22.473 37.7428C22.4051 37.7165 22.3323 37.703 22.2588 37.7033H21.1816C21.1082 37.703 21.0354 37.7165 20.9675 37.7428C20.8996 37.7692 20.8379 37.808 20.7859 37.857C20.734 37.906 20.6928 37.9643 20.6649 38.0283C20.6369 38.0924 20.6227 38.1611 20.623 38.2304V38.5783H20.601C20.5153 38.5783 20.4331 38.6104 20.3725 38.6676C20.3119 38.7248 20.2779 38.8023 20.2779 38.8831C20.2779 38.964 20.3119 39.0415 20.3725 39.0987C20.4331 39.1559 20.5153 39.188 20.601 39.188H20.623V40.6899H20.601C20.5153 40.6899 20.4331 40.722 20.3725 40.7792C20.3119 40.8364 20.2779 40.9139 20.2779 40.9948C20.2779 41.0756 20.3119 41.1532 20.3725 41.2104C20.4331 41.2675 20.5153 41.2997 20.601 41.2997H20.623V42.7981H20.601C20.5153 42.7981 20.4331 42.8302 20.3725 42.8874C20.3119 42.9446 20.2779 43.0221 20.2779 43.103C20.2779 43.1838 20.3119 43.2614 20.3725 43.3186C20.4331 43.3757 20.5153 43.4078 20.601 43.4078H20.623V44.9098H20.6157C20.5604 44.909 20.5058 44.9213 20.4567 44.9453C20.4077 44.9693 20.3657 45.0045 20.3345 45.0476C20.3113 45.0798 20.2952 45.1161 20.287 45.1543C20.2719 45.2236 20.2829 45.2956 20.3183 45.358C20.3537 45.4203 20.4111 45.4689 20.4806 45.4954C20.5182 45.5123 20.5595 45.5205 20.6011 45.5195H20.623V45.9294C20.9553 46.9215 21.3168 47.9136 21.7184 48.9057C25.1691 57.4418 33.5564 60.0667 36.6091 60.7557H38.391C41.0164 60.1632 47.5999 58.1342 51.58 52.1369H51.3646V50.5592H52.5184C52.7923 50.0356 53.0467 49.4856 53.2816 48.9091C54.5181 45.8164 55.4733 42.6299 56.137 39.3844L55.823 29.6942H56.2101L56.21 29.0638ZM38.946 58.5096H36.054V57.8999H38.946V58.5096ZM38.946 57.3901H36.054V56.7597H38.946V57.3901ZM38.946 56.2464H36.054V55.6195H38.946V56.2464ZM45.891 52.1368H42.6777V50.5591H45.891V52.1368Z" fill="#272343" />
	<path d="M17.2602 20.6071C17.2755 28.0011 17.5292 38.531 21.7197 48.9068C25.6093 58.536 35.7945 60.6434 37.5005 60.9323C39.2062 60.6434 49.3903 58.536 53.2798 48.907C57.4706 38.531 57.7243 28.0011 57.7398 20.6071C54.6968 20.278 47.3484 19.1224 37.5005 15.2114C27.6514 19.1224 20.303 20.278 17.2602 20.6071Z" stroke="#EED132" stroke-width="0.275581" stroke-miterlimit="10" />
</svg>
