<svg width="41" height="40" viewBox="0 0 41 40" fill="none" xmlns="http://www.w3.org/2000/svg">
	<path d="M20.0348 9.7445C14.3582 9.7445 9.77934 14.3233 9.77934 20C9.77934 25.6767 14.3582 30.2555 20.0348 30.2555C25.7115 30.2555 30.2903 25.6767 30.2903 20C30.2903 14.3233 25.7115 9.7445 20.0348 9.7445ZM20.0348 26.6674C16.3664 26.6674 13.3674 23.6773 13.3674 20C13.3674 16.3227 16.3575 13.3326 20.0348 13.3326C23.7122 13.3326 26.7022 16.3227 26.7022 20C26.7022 23.6773 23.7033 26.6674 20.0348 26.6674ZM33.1019 9.325C33.1019 10.6549 32.0308 11.7171 30.7098 11.7171C29.3799 11.7171 28.3178 10.646 28.3178 9.325C28.3178 8.00402 29.3888 6.93295 30.7098 6.93295C32.0308 6.93295 33.1019 8.00402 33.1019 9.325ZM39.8943 11.7528C39.7425 8.54848 39.0106 5.71014 36.6632 3.37164C34.3247 1.03314 31.4864 0.301238 28.2821 0.140578C24.9796 -0.0468593 15.0811 -0.0468593 11.7787 0.140578C8.58331 0.292313 5.74498 1.02421 3.39755 3.36271C1.05012 5.70122 0.327148 8.53955 0.166487 11.7438C-0.0209499 15.0463 -0.0209499 24.9448 0.166487 28.2472C0.318222 31.4515 1.05012 34.2899 3.39755 36.6284C5.74498 38.9669 8.57439 39.6988 11.7787 39.8594C15.0811 40.0469 24.9796 40.0469 28.2821 39.8594C31.4864 39.7077 34.3247 38.9758 36.6632 36.6284C39.0017 34.2899 39.7336 31.4515 39.8943 28.2472C40.0817 24.9448 40.0817 15.0552 39.8943 11.7528ZM35.6278 31.7907C34.9316 33.5401 33.5839 34.8879 31.8255 35.593C29.1925 36.6373 22.9446 36.3963 20.0348 36.3963C17.1251 36.3963 10.8683 36.6284 8.24414 35.593C6.49473 34.8968 5.14696 33.549 4.44184 31.7907C3.39755 29.1576 3.63854 22.9097 3.63854 20C3.63854 17.0903 3.40647 10.8334 4.44184 8.2093C5.13804 6.45989 6.4858 5.11213 8.24414 4.40701C10.8772 3.36271 17.1251 3.6037 20.0348 3.6037C22.9446 3.6037 29.2014 3.37164 31.8255 4.40701C33.5749 5.1032 34.9227 6.45096 35.6278 8.2093C36.6721 10.8424 36.4311 17.0903 36.4311 20C36.4311 22.9097 36.6721 29.1666 35.6278 31.7907Z" />
</svg>
