<svg width="100" height="100" viewBox="0 0 100 100" fill="none" xmlns="http://www.w3.org/2000/svg">
<rect width="100" height="100" rx="10" fill="#FFD300"/>
<path d="M15.7599 66.1818H19.6804V81.5227C19.6733 82.929 19.375 84.1399 18.7855 85.1555C18.196 86.1641 17.3722 86.9418 16.3139 87.4886C15.2628 88.0284 14.0376 88.2983 12.6385 88.2983C11.3601 88.2983 10.2095 88.071 9.18679 87.6165C8.17116 87.1548 7.36506 86.473 6.76847 85.571C6.17188 84.669 5.87358 83.5469 5.87358 82.2045H9.80469C9.81179 82.794 9.93963 83.3018 10.1882 83.728C10.4439 84.1541 10.7955 84.4808 11.2429 84.7081C11.6903 84.9354 12.2053 85.049 12.7876 85.049C13.4197 85.049 13.956 84.9176 14.3963 84.6548C14.8366 84.3849 15.1705 83.9872 15.3977 83.4616C15.6321 82.9361 15.7528 82.2898 15.7599 81.5227V66.1818ZM37.3256 72.1797C37.2262 71.2493 36.8072 70.5249 36.0685 70.0064C35.337 69.4879 34.3853 69.2287 33.2134 69.2287C32.3896 69.2287 31.6829 69.353 31.0934 69.6016C30.5039 69.8501 30.0529 70.1875 29.7404 70.6136C29.4279 71.0398 29.2681 71.5263 29.261 72.0732C29.261 72.5277 29.364 72.9219 29.57 73.2557C29.783 73.5895 30.0707 73.8736 30.4329 74.108C30.7951 74.3352 31.1964 74.527 31.6367 74.6832C32.0771 74.8395 32.521 74.9709 32.9684 75.0774L35.0138 75.5888C35.8377 75.7805 36.6296 76.0398 37.3896 76.3665C38.1566 76.6932 38.842 77.1051 39.4457 77.6023C40.0565 78.0994 40.5394 78.6996 40.8945 79.4027C41.2496 80.1058 41.4272 80.9297 41.4272 81.8743C41.4272 83.1527 41.1005 84.2784 40.4471 85.2514C39.7937 86.2173 38.8491 86.9737 37.6133 87.5206C36.3846 88.0604 34.8967 88.3303 33.1495 88.3303C31.4521 88.3303 29.9783 88.0675 28.7283 87.5419C27.4854 87.0163 26.5124 86.2493 25.8093 85.2408C25.1133 84.2322 24.7369 83.0036 24.68 81.5547H28.5685C28.6254 82.3146 28.8597 82.9467 29.2717 83.451C29.6836 83.9553 30.2198 84.3317 30.8803 84.5803C31.5479 84.8288 32.2937 84.9531 33.1175 84.9531C33.9769 84.9531 34.7298 84.8253 35.3761 84.5696C36.0295 84.3068 36.5408 83.9446 36.9102 83.483C37.2795 83.0142 37.4677 82.4673 37.4748 81.8423C37.4677 81.2741 37.3008 80.8054 36.9741 80.4361C36.6474 80.0597 36.1893 79.7472 35.5998 79.4986C35.0174 79.2429 34.3356 79.0156 33.5543 78.8168L31.0721 78.1776C29.2752 77.7159 27.8548 77.0163 26.8107 76.0788C25.7738 75.1342 25.2553 73.8807 25.2553 72.3182C25.2553 71.0327 25.6033 69.907 26.2994 68.9411C27.0025 67.9751 27.9577 67.2259 29.1651 66.6932C30.3725 66.1534 31.7397 65.8835 33.2667 65.8835C34.815 65.8835 36.1715 66.1534 37.3363 66.6932C38.5082 67.2259 39.4279 67.968 40.0955 68.9197C40.7631 69.8643 41.1076 70.951 41.1289 72.1797H37.3256Z" fill="black"/>
</svg>
