<svg width="23" height="29" viewBox="0 0 23 29" fill="none" xmlns="http://www.w3.org/2000/svg">
	<path d="M9.58836 27.0634L9.5893 27.0648C10.4525 28.3117 12.2974 28.3118 13.1607 27.0648L13.1616 27.0634C14.4026 25.2644 15.4733 23.739 16.3937 22.4276C18.0797 20.0255 19.2615 18.3418 20.0617 17.0112C20.6928 15.9618 21.1247 15.0731 21.3922 14.1699C21.662 13.259 21.75 12.3825 21.75 11.375C21.75 5.64503 17.105 1 11.375 1C5.64503 1 1 5.64503 1 11.375C1 12.3825 1.08803 13.259 1.35778 14.1699C1.62526 15.0731 2.05715 15.9618 2.68831 17.0112C3.48854 18.3418 4.67031 20.0255 6.3563 22.4276C7.27672 23.739 8.34743 25.2644 9.58836 27.0634ZM14.2812 11.375C14.2812 12.9801 12.9801 14.2812 11.375 14.2812C9.76991 14.2812 8.46875 12.9801 8.46875 11.375C8.46875 9.76991 9.76991 8.46875 11.375 8.46875C12.9801 8.46875 14.2812 9.76991 14.2812 11.375Z" stroke="url(#paint0_linear_4_18)" stroke-width="2" />
	<defs>
		<linearGradient id="paint0_linear_4_18" x1="20.75" y1="14.3832" x2="1.9729" y2="14.3156" gradientUnits="userSpaceOnUse">
			<stop stop-color="#6CA6C1" />
			<stop offset="0.765625" stop-color="#FFF3BA" />
			<stop offset="1" stop-color="white" />
		</linearGradient>
	</defs>
</svg>
