<svg width="100" height="38" viewBox="0 0 150 38" fill="none" xmlns="http://www.w3.org/2000/svg">
	<g clip-path="url(#clip0_6_1503)">
		<path d="M11.2055 3.89897C9.7373 2.15702 8.47303 0.387856 8.21475 0.0204135C8.18755 -0.00680449 8.14676 -0.00680449 8.11958 0.0204135C7.86128 0.387856 6.59702 2.15702 5.12883 3.89897C-7.47303 19.9711 7.11361 30.8175 7.11361 30.8175L7.23595 30.8992C7.34469 32.573 7.61659 34.9818 7.61659 34.9818H8.16036H8.70413C8.70413 34.9818 8.97602 32.5866 9.08478 30.8992L9.20712 30.8039C9.2207 30.8175 23.8074 19.9711 11.2055 3.89897ZM8.16036 30.5725C8.16036 30.5725 7.50784 30.0146 7.33111 29.7289V29.7015L8.11958 12.2004C8.11958 12.146 8.20115 12.146 8.20115 12.2004L8.9896 29.7015V29.7289C8.81288 30.0146 8.16036 30.5725 8.16036 30.5725Z" fill="#001E2B" />
		<path d="M35.4584 27.0011L29.38 12.1553L29.3664 12.1143H24.6372V13.1122H25.4004C25.632 13.1122 25.8501 13.2079 26.0137 13.3719C26.1772 13.536 26.259 13.7547 26.259 13.9871L26.1227 28.9287C26.1227 29.3934 25.7412 29.7761 25.2777 29.7899L24.5009 29.8035V30.7878H29.1075V29.8035L28.6304 29.7899C28.1671 29.7761 27.7854 29.3934 27.7854 28.9287V14.8483L34.4091 30.7878C34.5044 31.0201 34.7224 31.1705 34.9678 31.1705C35.2131 31.1705 35.4312 31.0201 35.5266 30.7878L42.0003 15.2037L42.0957 28.9287C42.0957 29.4071 41.714 29.7899 41.2371 29.8035H40.7464V30.7878H46.1434V29.8035H45.4074C44.9441 29.8035 44.5624 29.4071 44.5488 28.9423L44.5079 14.0007C44.5079 13.5223 44.8895 13.1395 45.353 13.1258L46.1434 13.1122V12.1143H41.5368L35.4584 27.0011Z" fill="#001E2B" />
		<path d="M77.8406 29.5435C77.6902 29.3929 77.6083 29.1875 77.6083 28.941V21.6011C77.6083 20.2044 77.1984 19.1088 76.3785 18.3283C75.5724 17.5477 74.4519 17.1506 73.0582 17.1506C71.1041 17.1506 69.5601 17.9449 68.4806 19.506C68.467 19.5333 68.426 19.5471 68.385 19.5471C68.3439 19.5471 68.3167 19.5196 68.3167 19.4786L67.811 17.5203H66.9638L64.7913 18.7665V19.4511H65.3515C65.6111 19.4511 65.8297 19.5196 65.9801 19.6567C66.1304 19.7936 66.2123 19.999 66.2123 20.2865V28.9273C66.2123 29.1738 66.1304 29.3792 65.9801 29.5299C65.8297 29.6804 65.6249 29.7626 65.3789 29.7626H64.8323V30.7623H69.8333V29.7626H69.2868C69.0408 29.7626 68.8358 29.6804 68.6856 29.5299C68.5353 29.3792 68.4532 29.1738 68.4532 28.9273V23.2033C68.4532 22.4775 68.6172 21.7518 68.9179 21.0396C69.2321 20.3413 69.6966 19.7525 70.3116 19.3006C70.9265 18.8487 71.6643 18.6295 72.5115 18.6295C73.468 18.6295 74.1923 18.9308 74.6431 19.5333C75.0941 20.1359 75.3264 20.9164 75.3264 21.8476V28.9137C75.3264 29.16 75.2443 29.3654 75.0941 29.5161C74.9438 29.6668 74.7388 29.7489 74.4928 29.7489H73.9463V30.7485H78.9474V29.7489H78.4009C78.1959 29.7764 78.0045 29.6941 77.8406 29.5435Z" fill="#001E2B" />
		<path d="M123.532 13.232C122.149 12.4959 120.604 12.1143 118.937 12.1143H112.432V13.1093H113.069C113.313 13.1093 113.53 13.2048 113.747 13.4229C113.95 13.6273 114.058 13.8591 114.058 14.1044V28.772C114.058 29.0173 113.95 29.2491 113.747 29.4536C113.543 29.658 113.313 29.767 113.069 29.767H112.432V30.7622H118.937C120.604 30.7622 122.149 30.3805 123.532 29.6444C124.914 28.9083 126.039 27.8177 126.852 26.4274C127.665 25.037 128.085 23.3603 128.085 21.4518C128.085 19.5435 127.665 17.8804 126.852 16.4764C126.025 15.0587 124.914 13.9818 123.532 13.232ZM125.47 21.4246C125.47 23.1695 125.158 24.6416 124.548 25.8276C123.938 27.0135 123.125 27.8995 122.122 28.4722C121.119 29.0447 120.008 29.3309 118.815 29.3309H117.501C117.257 29.3309 117.04 29.2355 116.823 29.0173C116.62 28.8129 116.511 28.5812 116.511 28.3358V14.4998C116.511 14.2544 116.606 14.0364 116.823 13.8182C117.026 13.6137 117.257 13.5047 117.501 13.5047H118.815C120.008 13.5047 121.119 13.7909 122.122 14.3634C123.125 14.9359 123.938 15.8221 124.548 17.0079C125.158 18.2075 125.47 19.6933 125.47 21.4246Z" fill="#001E2B" />
		<path d="M143.462 22.4197C142.861 21.7245 141.7 21.1383 140.334 20.8247C142.22 19.8842 143.189 18.5619 143.189 16.858C143.189 15.9311 142.944 15.0996 142.451 14.3907C141.96 13.6819 141.263 13.1093 140.375 12.714C139.486 12.3187 138.448 12.1143 137.273 12.1143H129.91V13.1093H130.497C130.743 13.1093 130.961 13.2048 131.18 13.4229C131.385 13.6273 131.494 13.8591 131.494 14.1044V28.772C131.494 29.0173 131.385 29.2491 131.18 29.4536C130.975 29.658 130.743 29.767 130.497 29.767H129.855V30.7622H137.848C139.063 30.7622 140.197 30.5577 141.222 30.1487C142.247 29.7398 143.066 29.1401 143.654 28.3494C144.255 27.5588 144.555 26.5909 144.555 25.4731C144.542 24.2735 144.186 23.2511 143.462 22.4197ZM134.295 29.0309C134.09 28.8265 133.981 28.5948 133.981 28.3494V21.7653H137.779C139.117 21.7653 140.142 22.1061 140.853 22.7877C141.564 23.4693 141.919 24.3553 141.919 25.4459C141.919 26.1002 141.754 26.7409 141.455 27.327C141.14 27.9269 140.675 28.404 140.047 28.772C139.432 29.1401 138.667 29.3309 137.779 29.3309H134.978C134.732 29.3309 134.514 29.2355 134.295 29.0309ZM133.995 20.3613V14.5134C133.995 14.268 134.09 14.05 134.309 13.8318C134.514 13.6273 134.746 13.5183 134.992 13.5183H136.795C138.093 13.5183 139.049 13.8455 139.651 14.4725C140.251 15.1132 140.552 15.9311 140.552 16.9398C140.552 17.9758 140.265 18.8074 139.706 19.4343C139.145 20.0478 138.298 20.3613 137.178 20.3613H133.995Z" fill="#001E2B" />
		<path d="M58.802 18.0201C57.758 17.4495 56.592 17.1506 55.3312 17.1506C54.0704 17.1506 52.8908 17.4359 51.8604 18.0201C50.8164 18.5906 49.9893 19.4193 49.3793 20.4653C48.7692 21.5114 48.4573 22.7341 48.4573 24.0926C48.4573 25.451 48.7692 26.6737 49.3793 27.7198C49.9893 28.7658 50.8164 29.5945 51.8604 30.1651C52.9044 30.7356 54.0704 31.0345 55.3312 31.0345C56.592 31.0345 57.7716 30.7492 58.802 30.1651C59.846 29.5945 60.6731 28.7658 61.2832 27.7198C61.8932 26.6737 62.2051 25.451 62.2051 24.0926C62.2051 22.7341 61.8932 21.5114 61.2832 20.4653C60.6731 19.4193 59.846 18.5906 58.802 18.0201ZM59.8053 24.0926C59.8053 25.7635 59.3986 27.122 58.5851 28.1001C57.7852 29.0782 56.6871 29.5809 55.3312 29.5809C53.9755 29.5809 52.8772 29.0782 52.0773 28.1001C51.2638 27.122 50.8571 25.7635 50.8571 24.0926C50.8571 22.4216 51.2638 21.0632 52.0773 20.085C52.8772 19.1069 53.9755 18.6042 55.3312 18.6042C56.6871 18.6042 57.7852 19.1069 58.5851 20.085C59.3986 21.0632 59.8053 22.4216 59.8053 24.0926Z" fill="#001E2B" />
		<path d="M106.851 18.0201C105.807 17.4495 104.641 17.1506 103.38 17.1506C102.119 17.1506 100.94 17.4359 99.9094 18.0201C98.8654 18.5906 98.0383 19.4193 97.4283 20.4653C96.8182 21.5114 96.5063 22.7341 96.5063 24.0926C96.5063 25.451 96.8182 26.6737 97.4283 27.7198C98.0383 28.7658 98.8654 29.5945 99.9094 30.1651C100.953 30.7356 102.119 31.0345 103.38 31.0345C104.641 31.0345 105.821 30.7492 106.851 30.1651C107.895 29.5945 108.722 28.7658 109.332 27.7198C109.942 26.6737 110.254 25.451 110.254 24.0926C110.254 22.7341 109.942 21.5114 109.332 20.4653C108.722 19.4193 107.881 18.5906 106.851 18.0201ZM107.854 24.0926C107.854 25.7635 107.448 27.122 106.634 28.1001C105.834 29.0782 104.736 29.5809 103.38 29.5809C102.024 29.5809 100.926 29.0782 100.126 28.1001C99.3128 27.122 98.9061 25.7635 98.9061 24.0926C98.9061 22.408 99.3128 21.0632 100.126 20.085C100.926 19.1069 102.024 18.6042 103.38 18.6042C104.736 18.6042 105.834 19.1069 106.634 20.085C107.434 21.0632 107.854 22.4216 107.854 24.0926Z" fill="#001E2B" />
		<path d="M87.4737 17.1506C86.3812 17.1506 85.3846 17.3826 84.4834 17.8466C83.5821 18.3106 82.8721 18.9385 82.3669 19.7436C81.8618 20.5352 81.6023 21.4224 81.6023 22.364C81.6023 23.2101 81.7934 23.988 82.1894 24.6841C82.5717 25.3529 83.0906 25.9123 83.746 26.3763L81.7934 29.024C81.5476 29.3515 81.5204 29.7882 81.6979 30.1431C81.889 30.5115 82.244 30.73 82.6537 30.73H83.2135C82.6673 31.0985 82.2304 31.5351 81.9299 32.0537C81.575 32.6405 81.3975 33.2547 81.3975 33.8824C81.3975 35.0562 81.9163 36.0252 82.9403 36.7485C83.9509 37.4718 85.3708 37.8403 87.1595 37.8403C88.4021 37.8403 89.59 37.6356 90.6687 37.2397C91.7611 36.8441 92.6486 36.2571 93.304 35.493C93.9731 34.7287 94.3145 33.8006 94.3145 32.7361C94.3145 31.6171 93.9048 30.8254 92.949 30.0613C92.1298 29.4197 90.8462 29.0786 89.2486 29.0786H83.787C83.7734 29.0786 83.7596 29.0649 83.7596 29.0649C83.7596 29.0649 83.746 29.0377 83.7596 29.024L85.1797 27.1134C85.5621 27.2907 85.9171 27.3999 86.2311 27.4681C86.5587 27.5364 86.9274 27.5637 87.337 27.5637C88.4841 27.5637 89.5218 27.3317 90.4229 26.8677C91.3241 26.4037 92.0479 25.7759 92.5667 24.9706C93.0855 24.1791 93.3449 23.2921 93.3449 22.3504C93.3449 21.3404 92.8534 19.498 91.5152 18.5563C91.5152 18.5427 91.529 18.5427 91.529 18.5427L94.4646 18.8702V17.5191H89.7675C89.0302 17.2872 88.2656 17.1506 87.4737 17.1506ZM89.1121 25.694C88.5932 25.9669 88.0334 26.117 87.4737 26.117C86.5589 26.117 85.7532 25.7895 85.0704 25.1481C84.3878 24.5066 84.0464 23.565 84.0464 22.364C84.0464 21.1631 84.3878 20.2213 85.0704 19.5799C85.7532 18.9385 86.5589 18.6109 87.4737 18.6109C88.0471 18.6109 88.5932 18.7474 89.1121 19.0339C89.631 19.307 90.0543 19.73 90.3957 20.2896C90.7233 20.8492 90.9008 21.5451 90.9008 22.364C90.9008 23.1965 90.7369 23.8925 90.3957 24.4384C90.0679 24.998 89.631 25.4211 89.1121 25.694ZM85.4118 30.7162H89.1121C90.1363 30.7162 90.7917 30.921 91.2286 31.3578C91.6655 31.7944 91.884 32.3812 91.884 33.0637C91.884 34.0599 91.488 34.8788 90.6961 35.493C89.904 36.1071 88.8391 36.421 87.5283 36.421C86.3812 36.421 85.4254 36.1617 84.729 35.6703C84.0327 35.1791 83.6777 34.4284 83.6777 33.4731C83.6777 32.8726 83.8416 32.313 84.1693 31.8218C84.497 31.3304 84.8929 30.9755 85.4118 30.7162Z" fill="#001E2B" />
		<path d="M147.325 30.5346C147.056 30.3871 146.853 30.1728 146.691 29.9182C146.543 29.6503 146.461 29.369 146.461 29.0608C146.461 28.7527 146.543 28.458 146.691 28.2034C146.839 27.9354 147.056 27.7345 147.325 27.5871C147.596 27.4398 147.893 27.3594 148.231 27.3594C148.568 27.3594 148.865 27.4398 149.136 27.5871C149.405 27.7345 149.608 27.9489 149.77 28.2034C149.918 28.4713 150 28.7527 150 29.0608C150 29.369 149.918 29.6637 149.77 29.9182C149.622 30.1862 149.405 30.3871 149.136 30.5346C148.865 30.6818 148.568 30.7623 148.231 30.7623C147.907 30.7623 147.596 30.6953 147.325 30.5346ZM148.987 30.347C149.216 30.2264 149.379 30.0388 149.514 29.8244C149.635 29.5967 149.703 29.3422 149.703 29.0608C149.703 28.7795 149.635 28.5249 149.514 28.2972C149.392 28.0695 149.216 27.8953 148.987 27.7747C148.757 27.6541 148.514 27.5871 148.231 27.5871C147.947 27.5871 147.704 27.6541 147.474 27.7747C147.245 27.8953 147.082 28.0828 146.947 28.2972C146.826 28.5249 146.758 28.7795 146.758 29.0608C146.758 29.3422 146.826 29.5967 146.947 29.8244C147.069 30.0522 147.245 30.2264 147.474 30.347C147.704 30.4676 147.947 30.5346 148.231 30.5346C148.514 30.5346 148.771 30.4676 148.987 30.347ZM147.501 29.8781V29.7575L147.528 29.7441H147.61C147.636 29.7441 147.663 29.7307 147.677 29.7173C147.704 29.6905 147.704 29.6772 147.704 29.6503V28.4043C147.704 28.3775 147.69 28.3508 147.677 28.3374C147.649 28.3106 147.636 28.3106 147.61 28.3106H147.528L147.501 28.2972V28.1766L147.528 28.1633H148.231C148.433 28.1633 148.582 28.2034 148.703 28.2972C148.825 28.391 148.878 28.5116 148.878 28.6724C148.878 28.7929 148.839 28.9134 148.744 28.9939C148.65 29.0876 148.541 29.1413 148.406 29.1546L148.568 29.2082L148.878 29.7038C148.906 29.7441 148.933 29.7575 148.974 29.7575H149.054L149.068 29.7709V29.8914L149.054 29.9049H148.636L148.609 29.8914L148.176 29.168H148.069V29.6503C148.069 29.6772 148.082 29.7038 148.096 29.7173C148.123 29.7441 148.137 29.7441 148.162 29.7441H148.244L148.271 29.7575V29.8781L148.244 29.8914H147.528L147.501 29.8781ZM148.19 28.9939C148.299 28.9939 148.392 28.967 148.447 28.9001C148.5 28.8464 148.541 28.7527 148.541 28.6455C148.541 28.5383 148.514 28.458 148.461 28.391C148.406 28.324 148.324 28.2972 148.231 28.2972H148.176C148.149 28.2972 148.123 28.3106 148.109 28.324C148.082 28.3507 148.082 28.3642 148.082 28.391V28.9939H148.19Z" fill="#001E2B" />
	</g>
	<defs>
		<clipPath id="clip0_6_1503">
			<rect width="150" height="37.8403" fill="white" />
		</clipPath>
	</defs>
</svg>
