<svg width="112" height="100" viewBox="0 0 112 100" fill="none" xmlns="http://www.w3.org/2000/svg">
<g clip-path="url(#clip0_6_1427)">
<path d="M55.5556 60.582C61.3998 60.582 66.1376 55.8443 66.1376 50C66.1376 44.1557 61.3998 39.418 55.5556 39.418C49.7113 39.418 44.9735 44.1557 44.9735 50C44.9735 55.8443 49.7113 60.582 55.5556 60.582Z" fill="#149ECA"/>
<path d="M55.5556 73.8095C84.777 73.8095 108.466 63.1496 108.466 50C108.466 36.8503 84.777 26.1904 55.5556 26.1904C26.3341 26.1904 2.64551 36.8503 2.64551 50C2.64551 63.1496 26.3341 73.8095 55.5556 73.8095Z" stroke="#149ECA" stroke-width="4"/>
<path d="M34.9359 61.9047C49.5466 87.2111 70.6227 102.396 82.0106 95.8213C93.3985 89.2465 90.7859 63.4016 76.1752 38.0951C61.5645 12.7886 40.4885 -2.39637 29.1005 4.17844C17.7126 10.7533 20.3252 36.5982 34.9359 61.9047Z" stroke="#149ECA" stroke-width="4"/>
<path d="M34.9359 38.0952C20.3252 63.4017 17.7126 89.2466 29.1005 95.8214C40.4885 102.396 61.5645 87.2112 76.1752 61.9047C90.7859 36.5982 93.3985 10.7533 82.0106 4.17849C70.6227 -2.39633 49.5466 12.7887 34.9359 38.0952Z" stroke="#149ECA" stroke-width="4"/>
</g>
<defs>
<clipPath id="clip0_6_1427">
<rect width="111.111" height="100" fill="white"/>
</clipPath>
</defs>
</svg>
