<svg width="118" height="70" viewBox="0 0 118 70" fill="none" xmlns="http://www.w3.org/2000/svg">
<path fill-rule="evenodd" clip-rule="evenodd" d="M58.6868 0C43.0359 0 33.2567 7.77829 29.3422 23.3349C35.2116 15.5566 42.0584 12.6403 49.8827 14.5837C54.3468 15.6923 57.5391 18.9121 61.0695 22.477C66.8238 28.282 73.4844 35 88.029 35C103.678 35 113.459 27.2217 117.371 11.6674C111.504 19.4457 104.657 22.362 96.833 20.4163C92.3666 19.3077 89.1743 16.0879 85.644 12.5253C79.8896 6.71573 73.2314 0 58.6868 0ZM29.3422 35C13.6937 35 3.91214 42.7783 0 58.3349C5.86937 50.5566 12.7162 47.6403 20.5382 49.5837C25.0046 50.6923 28.1969 53.9121 31.7272 57.477C37.4816 63.282 44.1398 70 58.6868 70C74.3353 70 84.1168 62.224 88.029 46.6674C82.1596 54.4457 75.3128 57.362 67.4885 55.4186C63.0244 54.3077 59.8321 51.0879 56.3017 47.5253C50.5474 41.7203 43.8868 35 29.3422 35Z" fill="#38BDF8"/>
</svg>
