<svg width="100" height="100" viewBox="0 0 100 100" fill="none" xmlns="http://www.w3.org/2000/svg">
<rect width="100" height="100" rx="10" fill="#007ACC"/>
<path d="M6.19318 69.495V66.1818H23.6009V69.495H16.8572V88H12.9368V69.495H6.19318ZM40.3139 72.1797C40.2145 71.2493 39.7955 70.5249 39.0568 70.0064C38.3253 69.4879 37.3736 69.2287 36.2017 69.2287C35.3778 69.2287 34.6712 69.353 34.0817 69.6016C33.4922 69.8501 33.0412 70.1875 32.7287 70.6136C32.4162 71.0398 32.2564 71.5263 32.2493 72.0732C32.2493 72.5277 32.3523 72.9219 32.5582 73.2557C32.7713 73.5895 33.0589 73.8736 33.4212 74.108C33.7834 74.3352 34.1847 74.527 34.625 74.6832C35.0653 74.8395 35.5092 74.9709 35.9567 75.0774L38.0021 75.5888C38.826 75.7805 39.6179 76.0398 40.3778 76.3665C41.1449 76.6932 41.8303 77.1051 42.4339 77.6023C43.0447 78.0994 43.5277 78.6996 43.8828 79.4027C44.2379 80.1058 44.4155 80.9297 44.4155 81.8743C44.4155 83.1527 44.0888 84.2784 43.4354 85.2514C42.782 86.2173 41.8374 86.9737 40.6016 87.5206C39.3729 88.0604 37.8849 88.3303 36.1378 88.3303C34.4403 88.3303 32.9666 88.0675 31.7166 87.5419C30.4737 87.0163 29.5007 86.2493 28.7976 85.2408C28.1016 84.2322 27.7251 83.0036 27.6683 81.5547H31.5568C31.6136 82.3146 31.848 82.9467 32.2599 83.451C32.6719 83.9553 33.2081 84.3317 33.8686 84.5803C34.5362 84.8288 35.282 84.9531 36.1058 84.9531C36.9652 84.9531 37.718 84.8253 38.3643 84.5696C39.0178 84.3068 39.5291 83.9446 39.8984 83.483C40.2678 83.0142 40.456 82.4673 40.4631 81.8423C40.456 81.2741 40.2891 80.8054 39.9624 80.4361C39.6357 80.0597 39.1776 79.7472 38.5881 79.4986C38.0057 79.2429 37.3239 79.0156 36.5426 78.8168L34.0604 78.1776C32.2635 77.7159 30.843 77.0163 29.799 76.0788C28.7621 75.1342 28.2436 73.8807 28.2436 72.3182C28.2436 71.0327 28.5916 69.907 29.2876 68.9411C29.9908 67.9751 30.946 67.2259 32.1534 66.6932C33.3608 66.1534 34.728 65.8835 36.255 65.8835C37.8033 65.8835 39.1598 66.1534 40.3246 66.6932C41.4964 67.2259 42.4162 67.968 43.0838 68.9197C43.7514 69.8643 44.0959 70.951 44.1172 72.1797H40.3139Z" fill="white"/>
</svg>
